<svg width="1024" height="1024" viewBox="0 0 680 680" xmlns="http://www.w3.org/2000/svg">
  <defs>
    <linearGradient id="bg5" x1="0" y1="0" x2="1" y2="1">
      <stop offset="0%" stop-color="#8B5CF6"/>
      <stop offset="50%" stop-color="#6D28D9"/>
      <stop offset="100%" stop-color="#60A5FA"/>
    </linearGradient>
  </defs>
  <rect width="680" height="680" rx="144" fill="url(#bg5)"/>
  <g transform="translate(136, 136) scale(0.6)">
    <path d="
      M340 110
      C430 110 500 175 500 255
      C500 315 465 358 420 388
      C395 404 382 422 382 445
      L382 480
      C382 491 372 500 360 500
      L320 500
      C308 500 298 491 298 480
      L298 440
      C298 400 320 370 358 348
      C395 326 420 294 420 255
      C420 218 384 190 340 190
      C296 190 260 218 260 255
      L260 265
      C260 276 250 285 238 285
      L202 285
      C190 285 180 276 180 265
      L180 255
      C180 175 252 110 340 110Z
    " fill="white"/>
    <circle cx="340" cy="570" r="38" fill="white"/>
  </g>
</svg>